<svg xmlns="http://www.w3.org/2000/svg" width="20" height="20" viewBox="0 -3 20 23">
    <g fill="none">
        <circle cx="10" cy="10" r="10" fill="#267ba5"/>
        <path fill="#ffffff"
              d="M10 4.938a.823.823 0 0 0-.818.828v.052c-.95.126-1.637.537-1.637 1.618 0 4.106-2.045 3.314-2.045 5.786 0 0 1.639.414 4.5.414 2.861 0 4.5-.414 4.5-.414 0-2.457-2.045-1.656-2.045-5.786 0-1.09-.679-1.496-1.637-1.618v-.052a.823.823 0 0 0-.818-.829zm-1.163 9.086c.162.494.62.854 1.163.854.542 0 1.001-.36 1.163-.854-.36.015-.75.026-1.163.026-.414 0-.801-.011-1.163-.026z"/>
    </g>
</svg>
